<?xml version="1.0" encoding="UTF-8" standalone="no"?>
<svg
   xmlns:dc="http://purl.org/dc/elements/1.1/"
   xmlns:cc="http://creativecommons.org/ns#"
   xmlns:rdf="http://www.w3.org/1999/02/22-rdf-syntax-ns#"
   xmlns:svg="http://www.w3.org/2000/svg"
   xmlns="http://www.w3.org/2000/svg"
   xmlns:sodipodi="http://sodipodi.sourceforge.net/DTD/sodipodi-0.dtd"
   xmlns:inkscape="http://www.inkscape.org/namespaces/inkscape"
   viewBox="0 0 24 24"
   id="svg2"
   version="1.1"
   inkscape:version="0.91 r13725"
   sodipodi:docname="view-time-schedule-baselined.svg">
  <metadata
     id="metadata14">
    <rdf:RDF>
      <cc:Work
         rdf:about="">
        <dc:format>image/svg+xml</dc:format>
        <dc:type
           rdf:resource="http://purl.org/dc/dcmitype/StillImage" />
      </cc:Work>
    </rdf:RDF>
  </metadata>
  <sodipodi:namedview
     pagecolor="#ffffff"
     bordercolor="#666666"
     borderopacity="1"
     objecttolerance="10"
     gridtolerance="10"
     guidetolerance="10"
     inkscape:pageopacity="0"
     inkscape:pageshadow="2"
     inkscape:window-width="703"
     inkscape:window-height="480"
     id="namedview12"
     showgrid="false"
     inkscape:zoom="9.8333333"
     inkscape:cx="12"
     inkscape:cy="12"
     inkscape:window-x="0"
     inkscape:window-y="0"
     inkscape:window-maximized="0"
     inkscape:current-layer="a6" />
  <defs
     id="defs3051">
    <style
       type="text/css"
       id="current-color-scheme">
      .ColorScheme-Text {
        color:#4d4d4d;
      }
      .ColorScheme-Highlight {
        color:#3daee9;
      }
      </style>
  </defs>
  <a
     transform="translate(1,1)"
     id="a6">
    <path
       style="fill:#f2f2f2;fill-opacity:1;stroke:none"
       d="M 3 3 L 3 19 L 19 19 L 19 3 L 17 3 L 17 6 L 15 6 L 15 3 L 7 3 L 7 6 L 5 6 L 5 3 L 3 3 z M 4 7 L 18 7 L 18 18 L 4 18 L 4 7 z M 5 8 L 5 11 L 6 11 L 6 10 L 10 10 L 10 11 L 11 11 L 11 8 L 10 8 L 10 9 L 6 9 L 6 8 L 5 8 z M 10 14 L 10 17 L 11 17 L 11 16 L 15 16 L 15 17 L 16 17 L 16 14 L 15 14 L 15 15 L 11 15 L 11 14 L 10 14 z "
       class="ColorScheme-Text"
       id="path8" />
    <path
       style="fill:currentColor;fill-opacity:1;stroke:none"
       d="m 433.71432,532.79071 0.99995,0 c 10e-6,0 2e-5,10e-6 2e-5,3e-5 l 0,10.99994 c 0,2e-5 -1e-5,3e-5 -2e-5,3e-5 l -0.99995,0 c -10e-6,0 -3e-5,-10e-6 -3e-5,-3e-5 l 0,-10.99994 c 0,-2e-5 2e-5,-3e-5 3e-5,-3e-5 z"
       class="ColorScheme-Highlight"
       transform="translate(-421.71429,-525.79074)"
       id="path10" />
  </a>
</svg>
