<?xml version="1.0" encoding="UTF-8" standalone="no"?>
<svg
   xmlns:dc="http://purl.org/dc/elements/1.1/"
   xmlns:cc="http://creativecommons.org/ns#"
   xmlns:rdf="http://www.w3.org/1999/02/22-rdf-syntax-ns#"
   xmlns:svg="http://www.w3.org/2000/svg"
   xmlns="http://www.w3.org/2000/svg"
   xmlns:sodipodi="http://sodipodi.sourceforge.net/DTD/sodipodi-0.dtd"
   xmlns:inkscape="http://www.inkscape.org/namespaces/inkscape"
   viewBox="0 0 24 24"
   id="svg2"
   version="1.1"
   inkscape:version="0.91 r13725"
   sodipodi:docname="edit-table-clear-row.svg">
  <metadata
     id="metadata14">
    <rdf:RDF>
      <cc:Work
         rdf:about="">
        <dc:format>image/svg+xml</dc:format>
        <dc:type
           rdf:resource="http://purl.org/dc/dcmitype/StillImage" />
      </cc:Work>
    </rdf:RDF>
  </metadata>
  <sodipodi:namedview
     pagecolor="#ffffff"
     bordercolor="#666666"
     borderopacity="1"
     objecttolerance="10"
     gridtolerance="10"
     guidetolerance="10"
     inkscape:pageopacity="0"
     inkscape:pageshadow="2"
     inkscape:window-width="1280"
     inkscape:window-height="751"
     id="namedview12"
     showgrid="false"
     inkscape:zoom="34.719961"
     inkscape:cx="6.7829193"
     inkscape:cy="12"
     inkscape:window-x="0"
     inkscape:window-y="0"
     inkscape:window-maximized="1"
     inkscape:current-layer="a6" />
  <defs
     id="defs3051">
    <style
       type="text/css"
       id="current-color-scheme">
      .ColorScheme-Text {
        color:#4d4d4d;
      }
      </style>
  </defs>
  <a
     transform="translate(1,1)"
     id="a6">
    <path
       style="fill:#f2f2f2;fill-opacity:1"
       d="m 4.2470661,10.641137 5.29297,0 3.9999999,0 4,0 0.70703,0 0,-0.7070305 0,-0.29297 -0.29297,0 -4,-4 4.29297,0 0,-1 -13.9999999,0 0,1 0.29297,0 4,4 -4.29297,0 0,1.0000005 m 1.70703,-5.0000005 2.58594,0 3.9999999,4 -2.5859399,0 -4,-4 m 4,0 2.5859399,0 4,4 -2.58594,0 -3.9999999,-4"
       id="path10"
       inkscape:connector-curvature="0" />
    <path
       id="rect4126"
       d="m 15.685777,12.33337 -0.990229,0.99023 2.009759,2.00977 -2.009759,2.00977 0.990229,0.99023 2.00977,-2.00977 2.00976,2.00977 0.99024,-0.99023 -2.00977,-2.00977 2.00977,-2.00977 -0.99024,-0.99023 -2.00976,2.00977 -2.00977,-2.00977 z"
       style="opacity:1;fill:#da4453;fill-opacity:1;stroke:none"
       inkscape:connector-curvature="0" />
  </a>
</svg>
