<?xml version="1.0" encoding="UTF-8" standalone="no"?>
<svg
   xmlns:dc="http://purl.org/dc/elements/1.1/"
   xmlns:cc="http://creativecommons.org/ns#"
   xmlns:rdf="http://www.w3.org/1999/02/22-rdf-syntax-ns#"
   xmlns:svg="http://www.w3.org/2000/svg"
   xmlns="http://www.w3.org/2000/svg"
   xmlns:sodipodi="http://sodipodi.sourceforge.net/DTD/sodipodi-0.dtd"
   xmlns:inkscape="http://www.inkscape.org/namespaces/inkscape"
   viewBox="0 0 24 24"
   id="svg2"
   version="1.1"
   inkscape:version="0.91 r13725"
   sodipodi:docname="edit-table-insert-row.svg">
  <metadata
     id="metadata14">
    <rdf:RDF>
      <cc:Work
         rdf:about="">
        <dc:format>image/svg+xml</dc:format>
        <dc:type
           rdf:resource="http://purl.org/dc/dcmitype/StillImage" />
      </cc:Work>
    </rdf:RDF>
  </metadata>
  <sodipodi:namedview
     pagecolor="#ffffff"
     bordercolor="#666666"
     borderopacity="1"
     objecttolerance="10"
     gridtolerance="10"
     guidetolerance="10"
     inkscape:pageopacity="0"
     inkscape:pageshadow="2"
     inkscape:window-width="703"
     inkscape:window-height="480"
     id="namedview12"
     showgrid="false"
     inkscape:zoom="9.8333333"
     inkscape:cx="12"
     inkscape:cy="12"
     inkscape:window-x="0"
     inkscape:window-y="0"
     inkscape:window-maximized="0"
     inkscape:current-layer="a6" />
  <defs
     id="defs3051">
    <style
       type="text/css"
       id="current-color-scheme">
      .ColorScheme-Text {
        color:#4d4d4d;
      }
      </style>
  </defs>
  <a
     transform="translate(1,1)"
     id="a6">
    <path
       style="fill:#f2f2f2;fill-opacity:1;stroke:none"
       d="M 3 3 L 3 8 L 4 8 L 4 4 L 6 4 L 6 7 L 6 8 L 7 8 L 7 7 L 7 4 L 9 4 L 9 8 L 10 8 L 10 4 L 12 4 L 12 8 L 13 8 L 13 4 L 15 4 L 15 7 L 15 8 L 16 8 L 16 7 L 16 4 L 18 4 L 18 8 L 19 8 L 19 4 L 19 3 L 4 3 L 3 3 z M 14 9 L 16.5 14 L 19 9 L 14 9 z M 3 14 L 3 19 L 4 19 L 12 19 L 13 19 L 15 19 L 16 19 L 18 19 L 19 19 L 19 18 L 19 14 L 18 14 L 18 18 L 16 18 L 16 14 L 15 14 L 15 18 L 13 18 L 13 14 L 12 14 L 12 18 L 10 18 L 10 14 L 9 14 L 9 18 L 7 18 L 7 14 L 6 14 L 6 18 L 4 18 L 4 14 L 3 14 z "
       class="ColorScheme-Text"
       id="path8" />
    <path
       d="M 3,8 3,9 4,9 7.28125,9 4,12.28125 4,12.292969 3.292969,13 3,13 l 0,1 1,0 7,0 2,0 0,-1 -0.28125,0 L 13,12.71875 13,11.28125 11.28125,13 11,13 8.71875,13 11,10.71875 12.71875,9 13,9 13,8 11,8 8.292969,8 4,8 3,8 M 8.71875,9 11,9 11.28125,9 11,9.28125 7.28125,13 l -2.5625,0 4,-4"
       style="fill:#1d99f3"
       id="path10" />
  </a>
</svg>
