<?xml version="1.0" encoding="UTF-8" standalone="no"?>
<svg
   xmlns:dc="http://purl.org/dc/elements/1.1/"
   xmlns:cc="http://creativecommons.org/ns#"
   xmlns:rdf="http://www.w3.org/1999/02/22-rdf-syntax-ns#"
   xmlns:svg="http://www.w3.org/2000/svg"
   xmlns="http://www.w3.org/2000/svg"
   xmlns:sodipodi="http://sodipodi.sourceforge.net/DTD/sodipodi-0.dtd"
   xmlns:inkscape="http://www.inkscape.org/namespaces/inkscape"
   viewBox="0 0 24 24"
   id="svg2"
   version="1.1"
   inkscape:version="0.91 r13725"
   sodipodi:docname="edit-table-add-row.svg">
  <metadata
     id="metadata14">
    <rdf:RDF>
      <cc:Work
         rdf:about="">
        <dc:format>image/svg+xml</dc:format>
        <dc:type
           rdf:resource="http://purl.org/dc/dcmitype/StillImage" />
      </cc:Work>
    </rdf:RDF>
  </metadata>
  <sodipodi:namedview
     pagecolor="#ffffff"
     bordercolor="#666666"
     borderopacity="1"
     objecttolerance="10"
     gridtolerance="10"
     guidetolerance="10"
     inkscape:pageopacity="0"
     inkscape:pageshadow="2"
     inkscape:window-width="1280"
     inkscape:window-height="751"
     id="namedview12"
     showgrid="false"
     inkscape:zoom="21.087891"
     inkscape:cx="12"
     inkscape:cy="12"
     inkscape:window-x="0"
     inkscape:window-y="0"
     inkscape:window-maximized="1"
     inkscape:current-layer="a6" />
  <defs
     id="defs3051">
    <style
       type="text/css"
       id="current-color-scheme">
      .ColorScheme-Text {
        color:#4d4d4d;
      }
      .ColorScheme-Highlight {
        color:#3daee9;
      }
      </style>
  </defs>
  <a
     transform="translate(1,1)"
     id="a6">
    <path
       style="fill:#f2f2f2;fill-opacity:1;stroke:none"
       d="M 3 3 L 3 9 L 3 19 L 4 19 L 19 19 L 19 18 L 19 9 L 18 9 L 18 13 L 16 13 L 16 9 L 15 9 L 15 13 L 13 13 L 13 9 L 13 3 L 12 3 L 12 9 L 12 13 L 10 13 L 10 9 L 9 9 L 9 13 L 7 13 L 7 9 L 6 9 L 6 13 L 5 13 L 4 13 L 4 9 L 4 3 L 3 3 z M 16.5 3 L 14 8 L 19 8 L 16.5 3 z M 4 14 L 5 14 L 6 14 L 6 15 L 6 18 L 4 18 L 4 14 z M 7 14 L 9 14 L 9 18 L 7 18 L 7 15 L 7 14 z M 10 14 L 12 14 L 12 18 L 10 18 L 10 14 z M 13 14 L 15 14 L 15 15 L 15 18 L 13 18 L 13 14 z M 16 14 L 17.099609 14 L 18 14 L 18 18 L 16 18 L 16 15 L 16 14 z "
       class="ColorScheme-Text"
       id="path8" />
    <path
       style="fill:currentColor;fill-opacity:1;stroke:none"
       d="M 3 3 L 3 9 L 4 9 L 9.2929688 9 L 12 9 L 13 9 L 13 3 L 12 3 L 4 3 L 3 3 z M 4 4 L 4.2929688 4 L 8.2929688 8 L 4 8 L 4 4 z M 5.7070312 4 L 8.2929688 4 L 12 7.7070312 L 12 8 L 9.7070312 8 L 5.7070312 4 z M 9.7070312 4 L 12 4 L 12 6.2929688 L 9.7070312 4 z "
       class="ColorScheme-Highlight"
       id="path10" />
  </a>
</svg>
