<?xml version="1.0" encoding="UTF-8" standalone="no"?>
<svg
   xmlns:dc="http://purl.org/dc/elements/1.1/"
   xmlns:cc="http://creativecommons.org/ns#"
   xmlns:rdf="http://www.w3.org/1999/02/22-rdf-syntax-ns#"
   xmlns:svg="http://www.w3.org/2000/svg"
   xmlns="http://www.w3.org/2000/svg"
   xmlns:sodipodi="http://sodipodi.sourceforge.net/DTD/sodipodi-0.dtd"
   xmlns:inkscape="http://www.inkscape.org/namespaces/inkscape"
   viewBox="0 0 22 22"
   id="svg2"
   version="1.1"
   inkscape:version="0.91 r13725"
   sodipodi:docname="edit-table-delete-row.svg">
  <metadata
     id="metadata12">
    <rdf:RDF>
      <cc:Work
         rdf:about="">
        <dc:format>image/svg+xml</dc:format>
        <dc:type
           rdf:resource="http://purl.org/dc/dcmitype/StillImage" />
      </cc:Work>
    </rdf:RDF>
  </metadata>
  <sodipodi:namedview
     pagecolor="#ffffff"
     bordercolor="#666666"
     borderopacity="1"
     objecttolerance="10"
     gridtolerance="10"
     guidetolerance="10"
     inkscape:pageopacity="0"
     inkscape:pageshadow="2"
     inkscape:window-width="1280"
     inkscape:window-height="751"
     id="namedview10"
     showgrid="false"
     inkscape:zoom="23.004972"
     inkscape:cx="11"
     inkscape:cy="11"
     inkscape:window-x="0"
     inkscape:window-y="0"
     inkscape:window-maximized="1"
     inkscape:current-layer="svg2" />
  <defs
     id="defs3051">
    <style
       type="text/css"
       id="current-color-scheme">
      .ColorScheme-Text {
        color:#4d4d4d;
      }
      </style>
  </defs>
  <path
     style="fill:#f2f2f2;fill-opacity:1;stroke:none"
     d="M 3 3 L 3 18 L 3 19 L 19 19 L 19 18 L 19 3 L 18 3 L 4 3 L 3 3 z M 4 4 L 8 4 L 8 6 L 4 6 L 4 4 z M 9 4 L 13 4 L 13 6 L 9 6 L 9 4 z M 14 4 L 18 4 L 18 6 L 15 6 L 14 6 L 14 4.9003906 L 14 4 z M 4 7 L 8 7 L 8 8 L 9 8 L 9 7 L 13 7 L 13 8 L 14 8 L 14 7 L 15 7 L 18 7 L 18 8 L 18 9 L 18 10 L 18 12 L 18 13 L 18 14 L 18 15 L 15 15 L 14 15 L 14 14 L 13 14 L 13 15 L 9 15 L 9 14 L 8 14 L 8 15 L 4 15 L 4 14 L 4 13 L 4 12 L 4 10 L 4 9 L 4 8 L 4 7 z M 4 16 L 7 16 L 8 16 L 8 17 L 8 18 L 4 18 L 4 16 z M 9 16 L 13 16 L 13 17 L 13 18 L 9 18 L 9 17 L 9 16 z M 14 16 L 15 16 L 18 16 L 18 18 L 14 18 L 14 17 L 14 16 z "
     class="ColorScheme-Text"
     id="path6" />
  <path
     style="fill:#da4453"
     d="m 4,14 5.29297,0 4,0 4,0 L 18,14 18,13.29297 18,13 l -0.29297,0 -4,-4 L 18,9 18,8 4,8 l 0,1 0.29297,0 4,4 L 4,13 4,14 m 1.70703,-5 2.58594,0 4,4 -2.58594,0 -4,-4 m 4,0 2.58594,0 4,4 -2.58594,0 -4,-4"
     id="path8" />
</svg>
