<?xml version="1.0" encoding="UTF-8" standalone="no"?>
<svg
   xmlns:dc="http://purl.org/dc/elements/1.1/"
   xmlns:cc="http://creativecommons.org/ns#"
   xmlns:rdf="http://www.w3.org/1999/02/22-rdf-syntax-ns#"
   xmlns:svg="http://www.w3.org/2000/svg"
   xmlns="http://www.w3.org/2000/svg"
   xmlns:sodipodi="http://sodipodi.sourceforge.net/DTD/sodipodi-0.dtd"
   xmlns:inkscape="http://www.inkscape.org/namespaces/inkscape"
   viewBox="0 0 22 22"
   id="svg2"
   version="1.1"
   inkscape:version="0.91 r13725"
   sodipodi:docname="edit-column-description.svg">
  <metadata
     id="metadata10">
    <rdf:RDF>
      <cc:Work
         rdf:about="">
        <dc:format>image/svg+xml</dc:format>
        <dc:type
           rdf:resource="http://purl.org/dc/dcmitype/StillImage" />
      </cc:Work>
    </rdf:RDF>
  </metadata>
  <sodipodi:namedview
     pagecolor="#ffffff"
     bordercolor="#666666"
     borderopacity="1"
     objecttolerance="10"
     gridtolerance="10"
     guidetolerance="10"
     inkscape:pageopacity="0"
     inkscape:pageshadow="2"
     inkscape:window-width="703"
     inkscape:window-height="480"
     id="namedview8"
     showgrid="false"
     inkscape:zoom="10.727273"
     inkscape:cx="11"
     inkscape:cy="11"
     inkscape:window-x="0"
     inkscape:window-y="0"
     inkscape:window-maximized="0"
     inkscape:current-layer="svg2" />
  <defs
     id="defs3051">
    <style
       type="text/css"
       id="current-color-scheme">
      .ColorScheme-Text {
        color:#4d4d4d;
      }
      </style>
  </defs>
  <path
     style="fill:#f2f2f2;fill-opacity:1;stroke:none"
     d="M 4 3 L 4 5 L 3 5 L 3 6 L 3 19 L 4 19 L 19 19 L 19 18 L 19 6 L 19 5 L 18 5 L 18 3 L 5 3 L 4 3 z M 5 4 L 17 4 L 17 5 L 5 5 L 5 4 z M 4 6 L 18 6 L 18 18 L 4 18 L 4 6 z M 5 7 L 5 11 L 9 11 L 9 7 L 5 7 z M 11 7 L 11 8 L 17 8 L 17 7 L 11 7 z M 11 10 L 11 11 L 17 11 L 17 10 L 11 10 z M 5 12 L 5 17 L 17 17 L 17 12 L 5 12 z "
     class="ColorScheme-Text"
     id="path6" />
</svg>
