<?xml version="1.0" encoding="UTF-8" standalone="no"?>
<!-- Created with Inkscape (http://www.inkscape.org/) -->

<svg
   xmlns:dc="http://purl.org/dc/elements/1.1/"
   xmlns:cc="http://creativecommons.org/ns#"
   xmlns:rdf="http://www.w3.org/1999/02/22-rdf-syntax-ns#"
   xmlns:svg="http://www.w3.org/2000/svg"
   xmlns="http://www.w3.org/2000/svg"
   xmlns:sodipodi="http://sodipodi.sourceforge.net/DTD/sodipodi-0.dtd"
   xmlns:inkscape="http://www.inkscape.org/namespaces/inkscape"
   width="22"
   height="22"
   id="svg3760"
   version="1.1"
   inkscape:version="0.91 r13725"
   sodipodi:docname="graph2d-function-xyz.svg">
  <defs
     id="defs3762" />
  <sodipodi:namedview
     id="base"
     pagecolor="#ffffff"
     bordercolor="#666666"
     borderopacity="1.0"
     inkscape:pageopacity="0.0"
     inkscape:pageshadow="2"
     inkscape:zoom="16.794594"
     inkscape:cx="1.5514077"
     inkscape:cy="12.263801"
     inkscape:document-units="px"
     inkscape:current-layer="layer1-7"
     showgrid="true"
     fit-margin-top="0"
     fit-margin-left="0"
     fit-margin-right="0"
     fit-margin-bottom="0"
     inkscape:window-width="1280"
     inkscape:window-height="751"
     inkscape:window-x="0"
     inkscape:window-y="0"
     inkscape:window-maximized="1"
     inkscape:showpageshadow="false"
     showguides="true"
     inkscape:object-nodes="true"
     inkscape:snap-bbox="true">
    <inkscape:grid
       type="xygrid"
       id="grid4106"
       originx="-0.99998557px"
       originy="-1.0000252px" />
    <sodipodi:guide
       position="2.00001,19.99997"
       orientation="0,18"
       id="guide4229" />
    <sodipodi:guide
       position="20.00001,19.99997"
       orientation="18,0"
       id="guide4231" />
    <sodipodi:guide
       position="20.00001,1.99997"
       orientation="0,-18"
       id="guide4233" />
    <sodipodi:guide
       position="2.00001,1.99997"
       orientation="-18,0"
       id="guide4235" />
    <sodipodi:guide
       position="3.00001,18.99997"
       orientation="0,16"
       id="guide4237" />
    <sodipodi:guide
       position="19.00001,18.99997"
       orientation="16,0"
       id="guide4239" />
    <sodipodi:guide
       position="19.00001,2.99997"
       orientation="0,-16"
       id="guide4241" />
    <sodipodi:guide
       position="3.00001,2.99997"
       orientation="-16,0"
       id="guide4243" />
  </sodipodi:namedview>
  <metadata
     id="metadata3765">
    <rdf:RDF>
      <cc:Work
         rdf:about="">
        <dc:format>image/svg+xml</dc:format>
        <dc:type
           rdf:resource="http://purl.org/dc/dcmitype/StillImage" />
        <dc:title></dc:title>
      </cc:Work>
    </rdf:RDF>
  </metadata>
  <g
     inkscape:label="Capa 1"
     inkscape:groupmode="layer"
     id="layer1"
     transform="translate(-551.28571,-607.64788)">
    <path
       style="opacity:1;fill:#f2f2f2;fill-opacity:1;stroke:none;stroke-width:2.79999995;stroke-miterlimit:4;stroke-dasharray:none;stroke-opacity:0.55026455"
       d="m 555.28572,610.6479 -10e-6,13.99997 -1,0 0,1 1,0 0,1 1,0 0,-1 14,0 0,-1 -14,0 10e-6,-13.99997 z"
       id="path4155-8"
       inkscape:connector-curvature="0"
       sodipodi:nodetypes="ccccccccccccc" />
    <g
       transform="translate(552.99229,-425.71429)"
       id="layer1-7"
       inkscape:label="Capa 1">
      <path
         id="rect3777"
         d="m 10.293434,1033.3622 c -1.6568536,0 -2.9999996,1.2592 -2.9999996,2.8125 l 0,1.875 -2,0 0,0.9375 2,0 0,0.9375 0,8.4375 1,0 0,-9.375 1,0 0.9999996,0 0,-0.9375 -0.9999996,0 -1,0 0,-1.875 c 0,-1.0355 0.8954305,-1.875 1.9999996,-1.875 l 1,0 0,-0.9375 -1,0 z"
         style="fill:#f2f2f2;fill-opacity:1;stroke:none"
         inkscape:connector-curvature="0" />
      <path
         inkscape:connector-curvature="0"
         id="rect4126-3"
         d="m 18.552122,1035.4194 -2.223938,1.8321 -2.293437,-1.8893 -0.741313,0.6107 2.293437,1.8893 -2.293437,1.8893 0.741313,0.6107 2.293437,-1.8893 2.223938,1.832 0.741312,-0.6106 -2.223938,-1.8321 2.223938,-1.8321 -0.741312,-0.6107 z"
         style="fill:#f2f2f2;fill-opacity:1;stroke:none" />
      <path
         style="color:#000000;font-style:normal;font-variant:normal;font-weight:normal;font-stretch:normal;font-size:medium;line-height:normal;font-family:Sans;-inkscape-font-specification:Sans;text-indent:0;text-align:start;text-decoration:none;text-decoration-line:none;letter-spacing:normal;word-spacing:normal;text-transform:none;direction:ltr;block-progression:tb;writing-mode:lr-tb;baseline-shift:baseline;text-anchor:start;display:inline;overflow:visible;visibility:visible;fill:#f2f2f2;fill-opacity:1;stroke:none;stroke-width:1.20000005;marker:none;enable-background:accumulate"
         d="m 14.020023,1042.0091 c 0.217596,1.027 0.779797,2.1067 2.05831,3.0917 -1.015419,0.9143 -2.474256,1.7838 -4.784899,2.6204 l 0.481167,0.641 c 5.005917,-1.8125 6.565616,-4.1974 7.591683,-6.3531 l -1.095986,0 c -0.41329,0.8683 -0.890896,1.6933 -1.603874,2.4884 -1.020997,-0.8179 -1.499031,-1.615 -1.684069,-2.4884 l -0.962332,0 z"
         id="path3007"
         inkscape:connector-curvature="0" />
    </g>
  </g>
</svg>
