<?xml version="1.0" encoding="UTF-8" standalone="no"?>
<!-- Generator: Adobe Illustrator 17.0.0, SVG Export Plug-In . SVG Version: 6.00 Build 0)  -->

<svg
   xmlns:dc="http://purl.org/dc/elements/1.1/"
   xmlns:cc="http://creativecommons.org/ns#"
   xmlns:rdf="http://www.w3.org/1999/02/22-rdf-syntax-ns#"
   xmlns:svg="http://www.w3.org/2000/svg"
   xmlns="http://www.w3.org/2000/svg"
   xmlns:sodipodi="http://sodipodi.sourceforge.net/DTD/sodipodi-0.dtd"
   xmlns:inkscape="http://www.inkscape.org/namespaces/inkscape"
   version="1.1"
   id="Layer_1"
   x="0px"
   y="0px"
   width="32px"
   height="32px"
   viewBox="0 0 32 32"
   enable-background="new 0 0 32 32"
   xml:space="preserve"
   inkscape:version="0.91 r13725"
   sodipodi:docname="table-row-sum.svg"><metadata
     id="metadata15"><rdf:RDF><cc:Work
         rdf:about=""><dc:format>image/svg+xml</dc:format><dc:type
           rdf:resource="http://purl.org/dc/dcmitype/StillImage" /><dc:title></dc:title></cc:Work></rdf:RDF></metadata><defs
     id="defs13" /><sodipodi:namedview
     pagecolor="#ffffff"
     bordercolor="#666666"
     borderopacity="1"
     objecttolerance="10"
     gridtolerance="10"
     guidetolerance="10"
     inkscape:pageopacity="0"
     inkscape:pageshadow="2"
     inkscape:window-width="1280"
     inkscape:window-height="751"
     id="namedview11"
     showgrid="false"
     inkscape:zoom="15.98877"
     inkscape:cx="16.406535"
     inkscape:cy="16"
     inkscape:window-x="0"
     inkscape:window-y="0"
     inkscape:window-maximized="1"
     inkscape:current-layer="Layer_1" /><rect
     x="5.0170002"
     y="22.152"
     width="2.6370001"
     height="7.487"
     id="rect3"
     style="fill:#00b7ff" /><text
     transform="scale(1.2399851,0.80646132)"
     font-size="20.0854"
     id="text5"
     x="6.5048857"
     y="18.297302"
     style="font-size:22.01159477px;font-family:MyriadPro-Regular;fill:#4d4d4d">∑</text>
<path
     d="m 27.476,21.202 c -0.044,0.003 -0.088,0.009 -0.132,0.009 0,0 0,0 0,0 l 0,0.177 -3,0 0,-0.222 c -0.333,0.024 -0.668,0.018 -1,-0.016 l 0,0.238 -3,0 0,-0.14 c -0.333,0.026 -0.668,0.022 -1,-0.009 l 0,0.15 -3,0 0,-0.175 c -0.334,0.017 -0.669,0.005 -1,-0.036 l 0,0.212 -3,0 0,-0.186 c -0.332,0.029 -0.668,0.029 -1,0 l 0,0.186 -3,0 0,-0.191 c -0.332,0.031 -0.667,0.036 -1,0.009 l 0,0.182 -2,0 0,-0.222 C 5.337,21.167 5.33,21.167 5.323,21.166 5.288,21.162 5.253,21.159 5.219,21.155 c 0,0 -0.001,0 -0.001,0 -0.291,0.023 -0.583,0.035 -0.874,0.014 l 0,9.222 24,0 0,-9.119 c -0.293,-0.011 -0.582,-0.032 -0.868,-0.07 z m -0.132,1.186 0,7 -3,0 0,-7 3,0 z m -4,0 0,7 -3,0 0,-7 3,0 z m -4,0 0,7 -3,0 0,-7 3,0 z m -4,0 0,7 -3,0 0,-7 3,0 z m -4,0 0,7 -3,0 0,-7 3,0 z m -4,0 0,7 -2,0 0,-7 2,0 z"
     id="path7"
     inkscape:connector-curvature="0"
     style="fill:#4d4d4d" /><rect
     x="4.3330002"
     y="21.143"
     width="23.990999"
     height="1.237"
     id="rect9"
     style="fill:#4d4d4d" /></svg>