<?xml version="1.0" encoding="UTF-8" standalone="no"?>
<!-- Generator: Adobe Illustrator 17.0.0, SVG Export Plug-In . SVG Version: 6.00 Build 0)  -->

<svg
   xmlns:dc="http://purl.org/dc/elements/1.1/"
   xmlns:cc="http://creativecommons.org/ns#"
   xmlns:rdf="http://www.w3.org/1999/02/22-rdf-syntax-ns#"
   xmlns:svg="http://www.w3.org/2000/svg"
   xmlns="http://www.w3.org/2000/svg"
   xmlns:sodipodi="http://sodipodi.sourceforge.net/DTD/sodipodi-0.dtd"
   xmlns:inkscape="http://www.inkscape.org/namespaces/inkscape"
   version="1.1"
   id="Layer_1"
   x="0px"
   y="0px"
   width="32px"
   height="32px"
   viewBox="0 0 32 32"
   enable-background="new 0 0 32 32"
   xml:space="preserve"
   inkscape:version="0.91 r13725"
   sodipodi:docname="table-column-sum.svg"><metadata
     id="metadata15"><rdf:RDF><cc:Work
         rdf:about=""><dc:format>image/svg+xml</dc:format><dc:type
           rdf:resource="http://purl.org/dc/dcmitype/StillImage" /><dc:title></dc:title></cc:Work></rdf:RDF></metadata><defs
     id="defs13" /><sodipodi:namedview
     pagecolor="#ffffff"
     bordercolor="#666666"
     borderopacity="1"
     objecttolerance="10"
     gridtolerance="10"
     guidetolerance="10"
     inkscape:pageopacity="0"
     inkscape:pageshadow="2"
     inkscape:window-width="1280"
     inkscape:window-height="751"
     id="namedview11"
     showgrid="false"
     inkscape:zoom="15.98877"
     inkscape:cx="16.406535"
     inkscape:cy="15.107736"
     inkscape:window-x="0"
     inkscape:window-y="0"
     inkscape:window-maximized="1"
     inkscape:current-layer="Layer_1" /><rect
     x="22.365999"
     y="4.9569998"
     width="7.487"
     height="2.6370001"
     id="rect3"
     style="fill:#00b7ff" /><text
     font-size="24"
     id="text5"
     x="1.0031"
     y="22.8909"
     style="font-size:24px;font-family:MyriadPro-Regular;fill:#4d4d4d">∑</text>
<path
     d="M 30.803,27.416 C 30.8,27.372 30.794,27.328 30.794,27.284 l 0,0 -0.177,0 0,-3 0.222,0 c -0.024,-0.333 -0.018,-0.668 0.016,-1 l -0.238,0 0,-3 0.14,0 c -0.026,-0.333 -0.022,-0.668 0.009,-1 l -0.15,0 0,-3 0.175,0 c -0.017,-0.334 -0.005,-0.669 0.036,-1 l -0.212,0 0,-3 0.186,0 c -0.029,-0.332 -0.029,-0.668 0,-1 l -0.186,0 0,-3 0.191,0 c -0.031,-0.332 -0.036,-0.667 -0.009,-1 l -0.182,0 0,-2 0.222,0 C 30.838,5.277 30.838,5.27 30.839,5.263 30.843,5.228 30.846,5.193 30.85,5.159 l 0,-10e-4 C 30.827,4.867 30.815,4.575 30.836,4.284 l -9.222,0 0,24 9.119,0 c 0.011,-0.292 0.032,-0.582 0.07,-0.868 z m -1.186,-0.132 -7,0 0,-3 7,0 0,3 z m 0,-4 -7,0 0,-3 7,0 0,3 z m 0,-4 -7,0 0,-3 7,0 0,3 z m 0,-4 -7,0 0,-3 7,0 0,3 z m 0,-4 -7,0 0,-3 7,0 0,3 z m 0,-4 -7,0 0,-2 7,0 0,2 z"
     id="path7"
     inkscape:connector-curvature="0"
     style="fill:#4d4d4d" /><rect
     x="29.625"
     y="4.2729998"
     width="1.237"
     height="23.990999"
     id="rect9"
     style="fill:#4d4d4d" /></svg>