<?xml version="1.0" encoding="UTF-8" standalone="no"?>
<!-- Created with Inkscape (http://www.inkscape.org/) -->

<svg
   xmlns:dc="http://purl.org/dc/elements/1.1/"
   xmlns:cc="http://creativecommons.org/ns#"
   xmlns:rdf="http://www.w3.org/1999/02/22-rdf-syntax-ns#"
   xmlns:svg="http://www.w3.org/2000/svg"
   xmlns="http://www.w3.org/2000/svg"
   xmlns:sodipodi="http://sodipodi.sourceforge.net/DTD/sodipodi-0.dtd"
   xmlns:inkscape="http://www.inkscape.org/namespaces/inkscape"
   width="24"
   height="24"
   id="svg2"
   version="1.1"
   inkscape:version="0.91 r13725"
   viewBox="0 0 24 24"
   sodipodi:docname="edit-erasor.svg">
  <defs
     id="defs4" />
  <sodipodi:namedview
     id="base"
     pagecolor="#ffffff"
     bordercolor="#666666"
     borderopacity="1.0"
     inkscape:pageopacity="0.0"
     inkscape:pageshadow="2"
     inkscape:zoom="41.519058"
     inkscape:cx="1.8604591"
     inkscape:cy="12.148065"
     inkscape:document-units="px"
     inkscape:current-layer="layer1"
     showgrid="true"
     inkscape:showpageshadow="false"
     borderlayer="true"
     inkscape:window-width="1280"
     inkscape:window-height="751"
     inkscape:window-x="0"
     inkscape:window-y="0"
     inkscape:window-maximized="1"
     units="px"
     fit-margin-top="0"
     fit-margin-left="0"
     fit-margin-right="0"
     fit-margin-bottom="0"
     inkscape:object-nodes="true"
     inkscape:snap-bbox="true">
    <sodipodi:guide
       position="4,20"
       orientation="16,0"
       id="guide4093" />
    <sodipodi:guide
       position="4,4"
       orientation="0,16"
       id="guide4095" />
    <sodipodi:guide
       position="20,4"
       orientation="-16,0"
       id="guide4097" />
    <sodipodi:guide
       position="20,20"
       orientation="0,-16"
       id="guide4099" />
    <inkscape:grid
       type="xygrid"
       id="grid4101"
       originx="1px"
       originy="0.99998262px" />
    <sodipodi:guide
       position="4,20"
       orientation="16,0"
       id="guide4123" />
    <sodipodi:guide
       position="4,4"
       orientation="0,2.000001"
       id="guide4125" />
    <sodipodi:guide
       position="6.000001,20"
       orientation="0,-2.000001"
       id="guide4129" />
    <sodipodi:guide
       position="18,4"
       orientation="0,2"
       id="guide4133" />
    <sodipodi:guide
       position="20,4"
       orientation="-16,0"
       id="guide4135" />
    <sodipodi:guide
       position="20,20"
       orientation="0,-2"
       id="guide4137" />
  </sodipodi:namedview>
  <metadata
     id="metadata7">
    <rdf:RDF>
      <cc:Work
         rdf:about="">
        <dc:format>image/svg+xml</dc:format>
        <dc:type
           rdf:resource="http://purl.org/dc/dcmitype/StillImage" />
        <dc:title />
      </cc:Work>
    </rdf:RDF>
  </metadata>
  <g
     inkscape:label="Capa 1"
     inkscape:groupmode="layer"
     id="layer1"
     transform="translate(1,-1029.3622)">
    <path
       style="color:#000000;display:inline;overflow:visible;visibility:visible;opacity:0.98692812;fill:#d08181;fill-opacity:1;fill-rule:nonzero;stroke:none;stroke-width:4;marker:none;enable-background:accumulate"
       d="m 6.769273,1041.6232 3.816934,1.8754 -0.02032,2.8013 c -0.01103,1.5408 -0.03133,2.8012 -0.04332,2.8012 -0.013,-10e-5 -1.735946,-0.8414 -3.8296798,-1.8696 l -3.8066801,-1.8693 0.021388,-2.8095 c 0.011764,-1.5453 0.031379,-2.8083 0.03237,-2.8071 0.01,0 1.7289085,0.8461 3.8282178,1.8776 l 0,0 z"
       id="path4253"
       inkscape:connector-curvature="0" />
    <path
       style="color:#000000;display:inline;overflow:visible;visibility:visible;opacity:0.98692812;fill:#deb3b3;fill-opacity:1;fill-rule:nonzero;stroke:none;stroke-width:4;marker:none;enable-background:accumulate"
       d="m 19.112007,1042.5994 -0.0217,2.8509 -3.85016,1.806 c -2.117623,0.9933 -3.860659,1.806 -3.873359,1.8059 -0.013,-10e-5 -0.01324,-1.2816 -0.0013,-2.8478 l 0.02168,-2.8475 3.847686,-1.8095 c 2.116236,-0.9951 3.859285,-1.8093 3.873384,-1.8092 0.014,2e-4 0.01623,1.2831 0.0043,2.8512 z"
       id="path4255"
       inkscape:connector-curvature="0" />
    <path
       style="color:#000000;display:inline;overflow:visible;visibility:visible;opacity:0.98692812;fill:#d24d4f;fill-opacity:1;fill-rule:nonzero;stroke:none;stroke-width:4;marker:none;enable-background:accumulate"
       d="m 14.810702,1037.4127 c 2.048205,1.0055 3.741895,1.8408 3.763679,1.8562 0.04376,0.031 -7.552813,3.6511 -7.667635,3.6536 -0.084,-6e-4 -7.4984015,-3.6409 -7.4830294,-3.6766 0.010129,-0.017 6.9948484,-3.3557 7.6371034,-3.6495 0.01408,-0.01 1.701677,0.8107 3.749882,1.8163 z"
       id="path4257"
       inkscape:connector-curvature="0" />
    <path
       style="color:#000000;display:inline;overflow:visible;visibility:visible;opacity:0.98692812;fill:#4d4d4d;fill-opacity:1;fill-rule:nonzero;stroke:none;stroke-width:4;marker:none;enable-background:accumulate"
       d="m 11.725707,1049.7667 8.248643,-3.8757 0.0067,-0.8777 0.04163,-5.4686 0.0022,-0.2926 c -1.144546,-0.55 -0.221103,-0.1056 -0.747237,-0.3658 l -7.316791,-3.5891 c -0.891906,-0.4361 -0.01,-10e-5 -0.902818,-0.4345 -8.0524561,3.7731 -6.0754294,2.8445 -8.405253,3.9422 -0.6340121,0.3275 -0.1175143,0.067 -0.6275519,0.3328 l -0.00188,0.2475 -1.674e-4,0.022 -0.041631,5.4686 -0.00668,0.8777 c 2.3151539,1.1314 0.3385478,0.1658 0.5604275,0.2744 l 7.6279533,3.7264 0.405017,0.1832 c 0.281595,0.1332 -1.2191289,-0.5788 0.373683,0.1745 0.744259,-0.3333 0.01,10e-5 0.783755,-0.3458 z m -0.275439,-0.7447 0.04249,-5.5811 0.06251,-0.068 0.219579,-0.088 7.244774,-3.4106 -0.04266,5.6037 z m -0.999971,-0.01 -7.4723708,-3.6579 0.041802,-5.4911 7.4723706,3.6579 z m 0.422103,-6.186 -7.2855625,-3.5663 7.4645245,-3.5217 7.316661,3.5667 -7.150834,3.3665 z"
       id="rect2996"
       inkscape:connector-curvature="0"
       sodipodi:nodetypes="ccccccccccccccccccccccccccccccccccccc" />
  </g>
</svg>
