<?xml version="1.0" encoding="UTF-8" standalone="no"?>
<svg
   xmlns:dc="http://purl.org/dc/elements/1.1/"
   xmlns:cc="http://creativecommons.org/ns#"
   xmlns:rdf="http://www.w3.org/1999/02/22-rdf-syntax-ns#"
   xmlns:svg="http://www.w3.org/2000/svg"
   xmlns="http://www.w3.org/2000/svg"
   xmlns:sodipodi="http://sodipodi.sourceforge.net/DTD/sodipodi-0.dtd"
   xmlns:inkscape="http://www.inkscape.org/namespaces/inkscape"
   viewBox="0 0 16 16"
   id="svg2"
   version="1.1"
   inkscape:version="0.91 r13725"
   sodipodi:docname="view-time-schedule-baselined.svg">
  <metadata
     id="metadata12">
    <rdf:RDF>
      <cc:Work
         rdf:about="">
        <dc:format>image/svg+xml</dc:format>
        <dc:type
           rdf:resource="http://purl.org/dc/dcmitype/StillImage" />
      </cc:Work>
    </rdf:RDF>
  </metadata>
  <sodipodi:namedview
     pagecolor="#ffffff"
     bordercolor="#666666"
     borderopacity="1"
     objecttolerance="10"
     gridtolerance="10"
     guidetolerance="10"
     inkscape:pageopacity="0"
     inkscape:pageshadow="2"
     inkscape:window-width="703"
     inkscape:window-height="480"
     id="namedview10"
     showgrid="false"
     inkscape:zoom="14.75"
     inkscape:cx="8"
     inkscape:cy="8"
     inkscape:window-x="0"
     inkscape:window-y="0"
     inkscape:window-maximized="0"
     inkscape:current-layer="g6" />
  <defs
     id="defs3051">
    <style
       type="text/css"
       id="current-color-scheme">
      .ColorScheme-Text {
        color:#4d4d4d;
      }
      </style>
  </defs>
  <g
     transform="translate(-421.71429,-531.79074)"
     id="g6">
    <rect
       style="opacity:1;fill:#1d99f3;fill-opacity:1;stroke:none;stroke-linecap:round"
       id="rect4143"
       width="1"
       height="8"
       x="430.71429"
       y="536.79071"
       ry="2.53291e-05" />
    <path
       style="fill:#f2f2f2;fill-opacity:1;stroke:none"
       d="M 2 2 L 2 14 L 14 14 L 14 2 L 12 2 L 12 4 L 10 4 L 10 2 L 6 2 L 6 4 L 4 4 L 4 2 L 2 2 z M 3 5 L 13 5 L 13 13 L 3 13 L 3 5 z M 4 6 L 4 9 L 5 9 L 5 8 L 8 8 L 8 9 L 9 9 L 9 6 L 8 6 L 8 7 L 5 7 L 5 6 L 4 6 z M 8 9 L 7 9 L 7 12 L 8 12 L 8 11 L 11 11 L 11 12 L 12 12 L 12 9 L 11 9 L 11 10 L 8 10 L 8 9 z "
       transform="translate(421.71429,531.79074)"
       class="ColorScheme-Text"
       id="rect4449" />
  </g>
</svg>
