<?xml version="1.0" encoding="UTF-8" standalone="no"?>
<svg
   xmlns:dc="http://purl.org/dc/elements/1.1/"
   xmlns:cc="http://creativecommons.org/ns#"
   xmlns:rdf="http://www.w3.org/1999/02/22-rdf-syntax-ns#"
   xmlns:svg="http://www.w3.org/2000/svg"
   xmlns="http://www.w3.org/2000/svg"
   xmlns:sodipodi="http://sodipodi.sourceforge.net/DTD/sodipodi-0.dtd"
   xmlns:inkscape="http://www.inkscape.org/namespaces/inkscape"
   viewBox="0 0 16 16"
   id="svg2"
   version="1.1"
   inkscape:version="0.91 r13725"
   sodipodi:docname="edit-hand.svg">
  <metadata
     id="metadata10">
    <rdf:RDF>
      <cc:Work
         rdf:about="">
        <dc:format>image/svg+xml</dc:format>
        <dc:type
           rdf:resource="http://purl.org/dc/dcmitype/StillImage" />
      </cc:Work>
    </rdf:RDF>
  </metadata>
  <sodipodi:namedview
     pagecolor="#ffffff"
     bordercolor="#666666"
     borderopacity="1"
     objecttolerance="10"
     gridtolerance="10"
     guidetolerance="10"
     inkscape:pageopacity="0"
     inkscape:pageshadow="2"
     inkscape:window-width="1280"
     inkscape:window-height="751"
     id="namedview8"
     showgrid="false"
     inkscape:zoom="114.8924"
     inkscape:cx="1.7749662"
     inkscape:cy="6.1965342"
     inkscape:window-x="0"
     inkscape:window-y="0"
     inkscape:window-maximized="1"
     inkscape:current-layer="svg2" />
  <defs
     id="defs3051">
    <style
       type="text/css"
       id="current-color-scheme">
      .ColorScheme-Text {
        color:#4d4d4d;
      }
      </style>
  </defs>
  <path
     style="color:#4d4d4d;fill:#f2f2f2;fill-opacity:1;stroke:none"
     d="m 11.126982,0.00385108 c -0.621413,0.037677 -1.046585,0.4278163 -1.345707,0.9106498 C 9.454921,-0.27203836 7.142268,-0.34625906 6.6797049,1.3355541 6.3162369,0.94421158 5.8522199,0.67322978 5.2675918,0.71474548 l -0.023437,0 C 4.175073,0.80836918 3.418488,1.7485276 3.6015719,2.7788851 L 4.5136836,8.0900306 C 4.1684365,7.8530926 3.749294,7.4469096 3.4414152,7.3125516 2.7279278,7.0011116 2.0748866,6.9620165 1.5488321,7.1127956 c -1.0521011,0.301416 -1.367191,1.28666 -1.367191,1.28666 L 0,8.9105946 0.4550793,9.2219776 c 1.0044804,0.660697 2.0235654,2.2622914 2.9863359,3.7542274 0.4813889,0.745932 0.9608876,1.451139 1.5058633,2.021055 0.5449754,0.569989 1.1629057,1.007884 1.9941458,1.002694 l 0.013672,0 c 2.3334387,-0.0012 4.6665787,2.29e-4 7.0000177,0 l 0.181642,0 0.02344,-0.66781 c 0,0 0.06423,-1.240581 0.181641,-2.710407 0.11744,-1.469828 0.299423,-3.1842064 0.501955,-3.9774834 L 15.939494,4.357345 c 0.315654,-1.1777963 -0.646459,-2.3108801 -1.892582,-2.2208108 -0.382441,0.021326 -0.720257,0.1853211 -1.003909,0.399511 l 0.02148,-0.6443092 c 0.07137,-1.07606752 -0.832937,-1.95740966 -1.937501,-1.88788492 z m -2.873055,0.708936 0,0.00196 C 8.834491,0.67920308 9.392909,1.1687751 9.416041,1.7350667 l 0.27539,4.9096758 c 0.01547,0.2776719 0.192309,0.2743014 0.205079,0.0235 l 0.25,-4.9331765 c 0.02138,-0.52179 0.490357,-0.99000372 1.025394,-1.02227792 0.618961,-0.039099 1.204053,0.53086172 1.164065,1.13390602 l -0.273438,5.3973185 c -0.0082,0.162152 0.03913,0.241965 0.08984,0.04504 l 0.935552,-3.6210561 c 0.10664,-0.4444456 0.536166,-0.7964331 1.00391,-0.8225225 0.691479,-0.049763 1.315787,0.6800733 1.140628,1.3336615 L 14.136756,8.4660406 C 13.696912,10.188935 13.475022,14.484056 13.449254,14.99726 L 7,15 7,15 C 4.8834892,14.97856 3.336046,10.247873 0.8652366,8.6227116 c 0,0 0.8905306,-2.5556514 4.5390744,0.998777 0,0 0.025599,-0.118762 0.068359,-0.287883 C 5.445963,9.2470956 5.429444,9.1555176 5.425795,9.0653066 L 4.3320425,2.6672571 C 4.2291901,2.0883831 4.7119638,1.4762871 5.3125138,1.4236815 5.8583288,1.3852935 6.3962191,1.8067122 6.4746262,2.3343314 L 7.273456,6.9992094 C 7.306366,7.1917166 7.53827,7.1414056 7.523457,6.8895392 L 7.228535,1.8466931 C 7.191615,1.2881503 7.680456,0.74669638 8.253927,0.71278708 Z"
     class="ColorScheme-Text"
     id="path6"
     inkscape:connector-curvature="0" />
</svg>
