<?xml version="1.0" encoding="UTF-8" standalone="no"?>
<svg
   xmlns:dc="http://purl.org/dc/elements/1.1/"
   xmlns:cc="http://creativecommons.org/ns#"
   xmlns:rdf="http://www.w3.org/1999/02/22-rdf-syntax-ns#"
   xmlns:svg="http://www.w3.org/2000/svg"
   xmlns="http://www.w3.org/2000/svg"
   xmlns:sodipodi="http://sodipodi.sourceforge.net/DTD/sodipodi-0.dtd"
   xmlns:inkscape="http://www.inkscape.org/namespaces/inkscape"
   viewBox="0 0 16 16"
   id="svg2"
   version="1.1"
   inkscape:version="0.91 r13725"
   sodipodi:docname="edit-table-clear.svg"><metadata
   id="metadata12">
  <rdf:RDF>
    <cc:Work
       rdf:about="">
      <dc:format>image/svg+xml</dc:format>
      <dc:type
         rdf:resource="http://purl.org/dc/dcmitype/StillImage" />
    </cc:Work>
  </rdf:RDF>
</metadata>
<sodipodi:namedview
   pagecolor="#ffffff"
   bordercolor="#666666"
   borderopacity="1"
   objecttolerance="10"
   gridtolerance="10"
   guidetolerance="10"
   inkscape:pageopacity="0"
   inkscape:pageshadow="2"
   inkscape:window-width="1280"
   inkscape:window-height="751"
   id="namedview10"
   showgrid="false"
   inkscape:zoom="67.835461"
   inkscape:cx="5.597127"
   inkscape:cy="8"
   inkscape:window-x="0"
   inkscape:window-y="0"
   inkscape:window-maximized="1"
   inkscape:current-layer="svg2" />
<defs
   id="defs3051">
  <style
     type="text/css"
     id="current-color-scheme">
      .ColorScheme-Text {
        color:#4d4d4d;
      }
      .ColorScheme-Highlight {
        color:#3daee9;
      }
      </style>
</defs>
<path
   style="color:#4d4d4d;fill:#f2f2f2;fill-opacity:1;stroke:none"
   d="m 2,2 0,12 7,0 0,-1 -2,0 0,-3 2,0 0,-1 -2,0 0,-3 2,0 0,3 1,0 0,-3 3,0 0,3 1,0 0,-7 z M 3,3 6,3 6,5 3,5 Z M 7,3 9,3 9,5 7,5 Z m 3,0 3,0 0,2 -3,0 z M 3,6 6,6 6,9 3,9 Z m 0,4 3,0 0,3 -3,0 z"
   class="ColorScheme-Text"
   id="path6"
   inkscape:connector-curvature="0"
   sodipodi:nodetypes="cccccccccccccccccccccccccccccccccccccccccccc" />
<path
   style="color:#000000;fill:#1d99f3"
   d="M 3,3 6,3 6,5 3,5 Z"
   id="path8" />

a
<path
   style="color:#000000;display:inline;overflow:visible;visibility:visible;fill:#da4453;fill-opacity:1;fill-rule:nonzero;stroke:none;stroke-width:2;marker:none;enable-background:accumulate"
   d="m 9.6396684,10.63451 1.6666696,1.66672 -1.6666696,1.66665 0.8333296,0.83332 1.66667,-1.66665 1.66667,1.66665 0.83333,-0.83332 -1.66666,-1.66665 1.66666,-1.66672 -0.83333,-0.8333203 -1.66667,1.6667203 -1.66667,-1.6667203 -0.8333296,0.8333203 z"
   id="rect5234"
   inkscape:connector-curvature="0" />
</svg>
